<svg width="24" height="24" viewBox="-2 -1.5 24 24" fill="none" xmlns="http://www.w3.org/2000/svg">
<path d="M19.591 6.1465L10.52 0.1575C10.204 -0.0525 9.796 -0.0525 9.48 0.1575L0.409 6.1475C0.149 6.3205 0 6.6035 0 6.9045V20.0875C0 20.5895 0.418 21.0005 0.929 21.0005H7.567C8.078 21.0005 8.496 20.5905 8.496 20.0875V13.0125H11.504V20.0875C11.504 20.5895 11.922 21.0005 12.433 21.0005H19.072C19.582 21.0005 20 20.5905 20 20.0875V6.9045C20 6.6035 19.841 6.3205 19.591 6.1465ZM18 19.0005L13.5 19.0105L13.511 11.9135C13.511 11.4115 13.093 11.0005 12.583 11.0005H7.44C6.929 11.0005 6.511 11.4105 6.511 11.9135L6.5 19.0005H2V7.7735L10.011 2.4315L18 7.7645V19.0005Z" fill="#0F1419"/>
</svg>
