<svg version="1.1" id="Layer_1" xmlns="http://www.w3.org/2000/svg" xmlns:xlink="http://www.w3.org/1999/xlink" x="0px" y="0px"
	 width="100%" viewBox="0 0 1024 1024" enable-background="new 0 0 1024 1024" xml:space="preserve">
<path fill="#000000" opacity="1.000000" stroke="none" 
	d="
M512.124878,611.873291 
	C499.285675,598.617310 486.692963,585.614868 474.174316,572.688965 
	C475.972321,569.840759 478.187622,570.768127 480.005463,570.763306 
	C505.671661,570.695251 531.352478,571.264648 557.001648,570.598206 
	C619.517090,568.973816 670.512878,544.201111 707.217041,492.853729 
	C724.099365,469.236145 732.941040,442.303162 735.796753,413.364563 
	C738.234985,388.655884 736.018066,364.543671 728.006592,340.979980 
	C717.467407,309.981781 699.132568,284.454437 673.709351,264.060547 
	C640.475708,237.401306 602.343750,224.920227 559.790710,224.978561 
	C453.958710,225.123627 348.126434,225.020844 242.294250,225.018204 
	C235.792877,225.018036 235.635864,224.859863 235.634766,218.260590 
	C235.632111,202.094147 235.627579,185.927689 235.624924,169.761246 
	C235.623672,162.168732 235.624603,162.111572 243.459030,162.077057 
	C254.625259,162.027863 265.791901,162.075699 276.958374,162.076599 
	C370.457306,162.084091 463.956787,161.906403 557.455017,162.163010 
	C617.690125,162.328323 671.829712,180.419769 718.431152,219.228073 
	C759.733826,253.623810 786.446960,297.084076 796.785339,349.881866 
	C806.740784,400.724060 801.001465,450.208435 778.759705,497.070618 
	C753.302612,550.707275 711.921204,588.074707 657.534607,611.334106 
	C645.564453,616.453369 633.246887,620.521729 620.625366,623.716248 
	C614.941589,625.154846 614.379211,627.245728 618.420105,631.517822 
	C656.207458,671.466980 694.033081,711.380127 731.814026,751.335327 
	C765.472595,786.930786 799.091858,822.563293 832.708923,858.197815 
	C833.805664,859.360352 835.372559,860.296692 835.294678,862.367920 
	C833.905762,864.029968 831.940186,863.328430 830.242737,863.331909 
	C806.076477,863.381653 781.909790,863.315674 757.743835,863.415344 
	C754.331665,863.429382 751.833008,862.485107 749.419250,859.946716 
	C722.778992,831.930969 696.018494,804.029541 669.303467,776.084839 
	C624.971008,729.711731 580.653748,683.324097 536.315857,636.956299 
	C528.369507,628.646118 520.354614,620.401611 512.124878,611.873291 
z"/>
<path fill="#000000" opacity="1.000000" stroke="none" 
	d="
M676.380310,341.754303 
	C692.732849,378.415192 692.989380,414.809662 675.970764,450.786743 
	C663.758240,476.603699 643.669617,494.898743 618.115112,507.307648 
	C598.143677,517.005554 577.066345,521.395874 554.829956,521.344543 
	C473.169800,521.156128 391.508942,521.249023 309.848358,521.238831 
	C301.244049,521.237732 301.231415,521.246338 301.231079,529.644592 
	C301.226746,638.303223 301.225403,746.961914 301.226776,855.620544 
	C301.226868,863.452637 301.239380,863.417175 293.364349,863.405823 
	C276.532288,863.381470 259.698090,863.249695 242.869461,863.490967 
	C238.071289,863.559692 236.606232,862.037903 236.610229,857.233704 
	C236.718933,726.410034 236.728470,595.586243 236.584976,464.762695 
	C236.578949,459.265320 238.877670,458.596680 243.448685,458.601135 
	C347.940826,458.703583 452.433136,458.747314 556.925293,458.667145 
	C577.810791,458.651123 595.616028,451.209442 609.441467,435.160095 
	C629.956177,411.345428 629.663025,377.802521 608.563477,354.446472 
	C594.538757,338.921936 577.079224,330.909271 555.987244,330.917175 
	C452.828369,330.955688 349.669464,330.929138 246.510590,330.925568 
	C246.343933,330.925568 246.177277,330.924744 246.010620,330.924530 
	C236.065887,330.912170 236.068680,330.912170 236.066589,321.200134 
	C236.063248,305.701416 236.002502,290.202454 236.074860,274.704102 
	C236.106033,268.027893 236.529266,267.708588 243.206375,267.708191 
	C348.032013,267.702271 452.871826,266.681244 557.677368,268.132446 
	C610.519470,268.864075 650.488037,294.687988 676.380310,341.754303 
z"/>
<path fill="#000000" opacity="1.000000" stroke="none" 
	d="
M496.487183,745.510620 
	C441.629456,687.717957 387.014587,630.180664 332.437653,572.683228 
	C334.570770,570.250793 336.343994,570.765564 337.915100,570.763062 
	C362.402710,570.724182 386.890686,570.785034 411.377838,570.669617 
	C414.679443,570.654114 416.933105,571.778076 419.165924,574.140625 
	C458.175690,615.416077 497.290558,656.592102 536.322388,697.846863 
	C581.993347,746.118835 627.614014,794.438293 673.234497,842.757996 
	C679.136475,849.009155 684.907043,855.384277 690.726379,861.688904 
	C688.862244,864.150085 686.697021,863.320068 684.857971,863.324036 
	C661.203369,863.375671 637.547974,863.263306 613.894287,863.416260 
	C609.864380,863.442322 607.101379,862.107788 604.372009,859.221680 
	C568.552307,821.345459 532.628113,783.568115 496.487183,745.510620 
z"/>
</svg>